<?xml version="1.0" standalone="no"?>
<!DOCTYPE svg PUBLIC "-//W3C//DTD SVG 20010904//EN"
 "http://www.w3.org/TR/2001/REC-SVG-20010904/DTD/svg10.dtd">
<svg version="1.0" xmlns="http://www.w3.org/2000/svg"
 width="133.000000pt" height="133.000000pt" viewBox="0 0 133.000000 133.000000"
 preserveAspectRatio="xMidYMid meet">
<metadata>
Created by potrace 1.11, written by Peter Selinger 2001-2013
</metadata>
<g transform="translate(0.000000,133.000000) scale(0.100000,-0.100000)"
fill="#000000" stroke="none">
<path d="M530 1221 c-85 -23 -163 -61 -225 -108 -60 -46 -65 -73 -17 -85 29
-8 38 -5 68 21 107 95 287 132 399 82 42 -19 53 -36 23 -36 -20 0 -33 -32 -20
-48 9 -11 29 -13 80 -11 37 2 73 6 80 9 19 7 14 41 -13 96 -28 54 -47 68 -70
49 -12 -10 -20 -9 -39 4 -57 37 -182 49 -266 27z"/>
<path d="M216 985 c-90 -32 -155 -113 -163 -203 -5 -53 -2 -63 41 -147 42 -81
46 -96 46 -158 0 -59 2 -68 16 -63 9 3 17 6 20 6 2 0 1 6 -2 14 -3 7 2 16 12
20 13 5 14 9 4 21 -9 10 -9 15 -1 15 18 0 9 53 -15 83 -40 48 -87 156 -86 193
2 42 42 105 94 147 79 63 235 41 292 -42 14 -20 26 -44 26 -52 0 -22 47 -116
70 -141 21 -23 21 -23 1 -26 -23 -4 -37 -19 -43 -47 -3 -16 -10 -19 -36 -17
-43 5 -45 -26 -2 -34 17 -4 30 -10 30 -14 0 -7 -21 -72 -25 -78 -1 -1 -25 5
-54 14 -57 19 -68 16 -52 -15 9 -16 7 -27 -10 -55 -19 -33 -19 -56 1 -56 4 0
19 19 33 42 22 38 28 41 68 42 42 1 44 2 60 46 9 25 19 63 22 85 4 22 6 41 7
43 0 1 13 2 29 2 26 0 41 14 41 39 0 3 -17 30 -39 58 -29 40 -39 61 -39 92 -1
48 -24 100 -58 132 -63 59 -203 85 -288 54z"/>
<path d="M904 982 c-90 -35 -145 -104 -146 -185 0 -32 -9 -54 -35 -89 -40 -56
-40 -81 1 -88 31 -5 39 -20 49 -97 11 -76 20 -88 66 -88 38 0 44 -4 64 -39 38
-68 66 -52 31 16 -14 28 -14 33 -2 42 8 6 13 17 11 24 -5 14 -35 16 -48 3 -6
-6 -24 -12 -41 -15 -27 -5 -33 -2 -38 17 -12 44 -7 53 32 63 45 11 40 29 -8
28 -32 0 -38 3 -52 38 -9 21 -24 38 -32 38 -21 0 -20 6 9 44 14 19 31 62 40
104 18 88 28 104 78 133 31 17 57 22 116 23 65 1 82 -3 121 -26 55 -32 89 -67
96 -99 3 -13 7 -34 10 -47 8 -38 -12 -90 -57 -148 l-42 -54 9 -83 c7 -66 12
-82 27 -85 15 -3 17 5 17 65 0 62 5 78 45 156 64 126 62 185 -12 276 -69 84
-200 115 -309 73z"/>
<path d="M1003 255 c-70 -55 -148 -79 -297 -90 -59 -5 -176 8 -198 21 -4 3 -3
15 2 29 13 35 -10 49 -83 47 -87 -3 -99 -6 -108 -29 -7 -20 15 -80 43 -114 26
-32 88 -35 88 -4 0 10 10 10 47 -2 69 -21 241 -25 342 -7 144 26 256 93 249
151 -4 40 -34 39 -85 -2z"/>
</g>
</svg>
